<?xml version="1.0" encoding="iso-8859-1"?>
<!-- Generator: Adobe Illustrator 19.1.1, SVG Export Plug-In . SVG Version: 6.00 Build 0)  -->
<svg version="1.1" id="Layer_1" xmlns="http://www.w3.org/2000/svg" xmlns:xlink="http://www.w3.org/1999/xlink" x="0px" y="0px"
	 viewBox="0 0 40 40" style="enable-background:new 0 0 40 40;" xml:space="preserve">
<g>
	<polygon style="fill:#FFFFFF;" points="0.527,25.073 3.233,20 0.532,14.935 3.339,3.706 38.808,20.002 3.023,36.616 	"/>
	<g>
		<path style="fill:#788B9C;" d="M3.678,4.412l33.937,15.593L3.38,35.9L1.055,25.147l2.494-4.676L3.8,20l-0.251-0.471l-2.486-4.66
			L3.678,4.412 M3,3L0,15l2.667,5L0,25l2.667,12.333L40,20L3,3L3,3z"/>
	</g>
</g>
<g>
	<polygon style="fill:#C5D4DE;" points="37.615,20.005 37.548,19.974 1.102,14.941 3.549,19.529 3.8,20 3.549,20.471 1.055,25.147 
		1.057,25.157 37.576,20.023 	"/>
</g>
</svg>
